<svg width="320" height="180" viewBox="0 0 320 180" fill="none" xmlns="http://www.w3.org/2000/svg"><rect width="320" height="180" fill="#F4F8FC"/><rect x="22" y="124" width="276" height="6" fill="#CBD5E1"/><rect x="44" y="78" width="132" height="40" fill="#1F4E79"/><rect x="176" y="88" width="54" height="30" fill="#163a5a"/><rect x="184" y="94" width="18" height="12" fill="#E2E8F0"/><rect x="206" y="94" width="16" height="12" fill="#E2E8F0"/><rect x="230" y="96" width="28" height="22" fill="#FFCC00"/><rect x="52" y="86" width="30" height="24" fill="#FFCC00"/><rect x="88" y="86" width="30" height="24" fill="#FFCC00"/><rect x="124" y="86" width="30" height="24" fill="#FFCC00"/><circle cx="84" cy="124" r="13" fill="#0f2a40"/><circle cx="84" cy="124" r="6" fill="#94A3B8"/><circle cx="196" cy="124" r="13" fill="#0f2a40"/><circle cx="196" cy="124" r="6" fill="#94A3B8"/><circle cx="246" cy="124" r="13" fill="#0f2a40"/><circle cx="246" cy="124" r="6" fill="#94A3B8"/><rect x="258" y="102" width="16" height="4" fill="#1F4E79" opacity="0.35"/><path d="M18 70H44" stroke="#94A3B8" stroke-width="4"/><path d="M16 92H34" stroke="#94A3B8" stroke-width="4"/><path d="M270 74H298" stroke="#94A3B8" stroke-width="4"/></svg>