<svg width="320" height="180" viewBox="0 0 320 180" fill="none" xmlns="http://www.w3.org/2000/svg"><rect width="320" height="180" fill="#F4F8FC"/><rect x="18" y="132" width="284" height="8" fill="#CBD5E1"/><rect x="36" y="54" width="184" height="72" fill="#1F4E79"/><rect x="48" y="66" width="76" height="16" fill="#E2E8F0"/><rect x="132" y="66" width="76" height="16" fill="#E2E8F0"/><rect x="48" y="88" width="160" height="26" fill="#163a5a"/><rect x="226" y="68" width="66" height="58" fill="#0f2a40"/><rect x="236" y="78" width="46" height="16" fill="#FFCC00"/><circle cx="248" cy="108" r="4" fill="#94A3B8"/><circle cx="262" cy="108" r="4" fill="#94A3B8"/><circle cx="276" cy="108" r="4" fill="#94A3B8"/><rect x="74" y="28" width="108" height="20" fill="white" stroke="#D1D5DB"/><rect x="84" y="34" width="58" height="8" fill="#1F4E79" opacity="0.25"/><path d="M182 38H214L226 54H194L182 38Z" fill="#D1D5DB"/><rect x="112" y="126" width="64" height="12" fill="#FFCC00"/><rect x="36" y="126" width="72" height="6" fill="#94A3B8"/><rect x="180" y="126" width="40" height="6" fill="#94A3B8"/></svg>