<svg width="320" height="180" viewBox="0 0 320 180" fill="none" xmlns="http://www.w3.org/2000/svg"><rect width="320" height="180" fill="#F4F8FC"/><rect x="24" y="20" width="188" height="140" fill="white" stroke="#D1D5DB"/><rect x="40" y="38" width="92" height="10" fill="#1F4E79" opacity="0.3"/><rect x="40" y="56" width="156" height="8" fill="#1F4E79" opacity="0.15"/><rect x="40" y="72" width="124" height="8" fill="#1F4E79" opacity="0.15"/><rect x="40" y="90" width="76" height="24" fill="#FFCC00"/><rect x="122" y="90" width="74" height="24" fill="#1F4E79" opacity="0.14"/><rect x="40" y="122" width="156" height="22" fill="#1F4E79" opacity="0.08"/><rect x="226" y="36" width="70" height="108" fill="white" stroke="#D1D5DB"/><rect x="238" y="48" width="46" height="10" fill="#1F4E79" opacity="0.25"/><circle cx="244" cy="74" r="5" fill="#FFCC00"/><rect x="254" y="70" width="28" height="8" fill="#1F4E79" opacity="0.2"/><circle cx="244" cy="90" r="5" fill="#FFCC00"/><rect x="254" y="86" width="28" height="8" fill="#1F4E79" opacity="0.2"/><circle cx="244" cy="106" r="5" fill="#FFCC00"/><rect x="254" y="102" width="28" height="8" fill="#1F4E79" opacity="0.2"/></svg>